<svg xmlns="http://www.w3.org/2000/svg" xmlns:xlink="http://www.w3.org/1999/xlink" width="500" zoomAndPan="magnify" viewBox="0 0 375 374.999991" height="500" preserveAspectRatio="xMidYMid meet" version="1.0"><defs><g/></defs><rect x="-37.5" width="450" fill="#ffffff" y="-37.499999" height="449.999989" fill-opacity="1"/><rect x="-37.5" width="450" fill="#ffffff" y="-37.499999" height="449.999989" fill-opacity="1"/><rect x="-37.5" width="450" fill="#ffffff" y="-37.499999" height="449.999989" fill-opacity="1"/><path fill="#fcfae9" d="M 163.292969 154.949219 C 160.164062 145.050781 164.761719 134.527344 174.15625 130.101562 C 174.699219 129.84375 174.382812 129.082031 173.871094 129.050781 C 161.457031 128.324219 150.429688 137.453125 149.277344 149.914062 C 148.203125 161.546875 156.488281 172.429688 167.957031 174.550781 C 174.914062 175.839844 181.949219 173.78125 187.320312 169.234375 C 187.78125 168.84375 187.273438 168.191406 186.773438 168.292969 C 176.679688 170.363281 166.691406 164.664062 163.292969 154.949219 C 163.058594 154.265625 161.96875 154.558594 162.207031 155.246094 C 165.8125 165.566406 176.351562 171.578125 187.074219 169.382812 C 186.890625 169.070312 186.707031 168.753906 186.527344 168.441406 C 174.855469 178.324219 156.332031 173.578125 151.445312 158.890625 C 146.523438 144.109375 158.523438 129.28125 173.871094 130.179688 C 173.773438 129.832031 173.679688 129.480469 173.585938 129.128906 C 163.757812 133.761719 158.933594 144.90625 162.203125 155.25 C 162.425781 155.9375 163.515625 155.640625 163.292969 154.949219 Z M 163.292969 154.949219 " fill-opacity="1" fill-rule="nonzero"/><path fill="#fcfae9" d="M 163.414062 195.136719 C 163.640625 195.195312 163.816406 195.308594 163.949219 195.476562 C 164.078125 195.640625 164.109375 195.8125 164.039062 195.980469 C 163.96875 196.152344 163.84375 196.300781 163.671875 196.421875 C 163.496094 196.546875 163.285156 196.582031 163.027344 196.535156 C 162.851562 196.515625 162.535156 196.46875 162.085938 196.394531 C 161.632812 196.320312 161.230469 196.246094 160.867188 196.183594 C 160.679688 196.140625 160.539062 196.175781 160.449219 196.296875 C 160.359375 196.417969 160.351562 196.578125 160.425781 196.777344 C 160.511719 197.089844 160.617188 197.414062 160.734375 197.738281 C 160.859375 198.070312 160.925781 198.289062 160.933594 198.402344 C 160.960938 198.566406 160.9375 198.757812 160.871094 198.988281 C 160.804688 199.214844 160.609375 199.386719 160.285156 199.507812 C 159.957031 199.632812 159.695312 199.632812 159.496094 199.507812 C 159.296875 199.378906 159.152344 199.246094 159.066406 199.105469 C 159.03125 199.003906 158.941406 198.792969 158.800781 198.472656 C 158.664062 198.152344 158.539062 197.835938 158.425781 197.535156 C 158.316406 197.34375 158.199219 197.230469 158.066406 197.191406 C 157.933594 197.15625 157.8125 197.214844 157.707031 197.371094 C 157.441406 197.671875 157.167969 198 156.878906 198.351562 C 156.585938 198.707031 156.382812 198.949219 156.261719 199.082031 C 156.101562 199.285156 155.914062 199.394531 155.703125 199.417969 C 155.488281 199.441406 155.300781 199.414062 155.136719 199.328125 C 154.972656 199.25 154.882812 199.101562 154.871094 198.890625 C 154.859375 198.679688 154.933594 198.472656 155.09375 198.265625 C 155.203125 198.109375 155.421875 197.785156 155.742188 197.289062 C 156.066406 196.792969 156.34375 196.371094 156.585938 196.019531 C 156.835938 195.699219 156.742188 195.445312 156.300781 195.261719 C 155.839844 195.121094 155.3125 194.957031 154.722656 194.777344 C 154.128906 194.597656 153.753906 194.476562 153.597656 194.421875 C 153.359375 194.335938 153.203125 194.214844 153.132812 194.054688 C 153.054688 193.894531 153.066406 193.730469 153.167969 193.546875 C 153.269531 193.363281 153.417969 193.242188 153.617188 193.183594 C 153.816406 193.125 154.035156 193.105469 154.28125 193.125 C 154.457031 193.148438 154.746094 193.195312 155.152344 193.273438 C 155.554688 193.351562 155.921875 193.429688 156.253906 193.507812 C 156.648438 193.558594 156.804688 193.386719 156.722656 192.988281 C 156.636719 192.675781 156.535156 192.339844 156.417969 191.980469 C 156.300781 191.621094 156.21875 191.378906 156.171875 191.25 C 156.125 191.039062 156.140625 190.832031 156.21875 190.628906 C 156.296875 190.429688 156.480469 190.273438 156.78125 190.160156 C 157.078125 190.050781 157.328125 190.039062 157.53125 190.136719 C 157.738281 190.234375 157.878906 190.382812 157.953125 190.582031 C 158.03125 190.699219 158.144531 190.929688 158.292969 191.277344 C 158.441406 191.625 158.585938 191.941406 158.730469 192.234375 C 158.875 192.613281 159.089844 192.648438 159.378906 192.339844 C 159.609375 192.050781 159.851562 191.742188 160.101562 191.417969 C 160.351562 191.09375 160.535156 190.863281 160.660156 190.734375 C 160.800781 190.566406 160.972656 190.4375 161.175781 190.347656 C 161.378906 190.257812 161.5625 190.25 161.730469 190.332031 C 161.925781 190.402344 162.054688 190.519531 162.117188 190.6875 C 162.179688 190.847656 162.148438 191.042969 162.027344 191.257812 C 161.914062 191.414062 161.699219 191.757812 161.367188 192.28125 C 161.039062 192.808594 160.765625 193.269531 160.542969 193.671875 C 160.320312 194.074219 160.398438 194.332031 160.78125 194.449219 C 161.007812 194.507812 161.25 194.566406 161.511719 194.625 C 161.769531 194.691406 162.035156 194.753906 162.300781 194.828125 C 162.5625 194.902344 162.796875 194.964844 163.003906 195.019531 C 163.195312 195.070312 163.335938 195.109375 163.414062 195.136719 Z M 163.414062 195.136719 " fill-opacity="1" fill-rule="nonzero"/><path fill="#fcfae9" d="M 191.6875 151.027344 C 191.738281 151.257812 191.71875 151.46875 191.625 151.660156 C 191.535156 151.855469 191.398438 151.953125 191.210938 151.96875 C 191.027344 151.980469 190.839844 151.9375 190.652344 151.835938 C 190.464844 151.738281 190.335938 151.5625 190.261719 151.316406 C 190.203125 151.148438 190.097656 150.847656 189.960938 150.410156 C 189.820312 149.976562 189.703125 149.578125 189.597656 149.226562 C 189.554688 149.039062 189.460938 148.933594 189.308594 148.90625 C 189.160156 148.878906 189.015625 148.945312 188.867188 149.105469 C 188.625 149.324219 188.386719 149.5625 188.148438 149.820312 C 187.914062 150.078125 187.742188 150.234375 187.648438 150.292969 C 187.515625 150.390625 187.335938 150.464844 187.101562 150.503906 C 186.867188 150.546875 186.625 150.449219 186.367188 150.214844 C 186.113281 149.976562 185.992188 149.742188 186.015625 149.507812 C 186.039062 149.273438 186.09375 149.082031 186.179688 148.945312 C 186.253906 148.863281 186.402344 148.691406 186.628906 148.421875 C 186.851562 148.152344 187.078125 147.898438 187.292969 147.664062 C 187.417969 147.484375 187.464844 147.324219 187.4375 147.191406 C 187.410156 147.058594 187.300781 146.976562 187.109375 146.949219 C 186.726562 146.851562 186.308594 146.75 185.863281 146.652344 C 185.414062 146.550781 185.109375 146.480469 184.933594 146.433594 C 184.679688 146.382812 184.496094 146.265625 184.378906 146.085938 C 184.261719 145.90625 184.203125 145.726562 184.203125 145.542969 C 184.199219 145.355469 184.292969 145.210938 184.476562 145.105469 C 184.660156 145 184.878906 144.972656 185.136719 145.023438 C 185.324219 145.050781 185.714844 145.09375 186.300781 145.160156 C 186.886719 145.222656 187.390625 145.28125 187.8125 145.339844 C 188.214844 145.417969 188.398438 145.21875 188.363281 144.746094 C 188.28125 144.269531 188.1875 143.730469 188.082031 143.117188 C 187.976562 142.503906 187.914062 142.117188 187.894531 141.953125 C 187.863281 141.703125 187.898438 141.511719 188.003906 141.371094 C 188.113281 141.230469 188.269531 141.164062 188.476562 141.171875 C 188.683594 141.175781 188.859375 141.257812 189 141.40625 C 189.144531 141.558594 189.261719 141.746094 189.351562 141.976562 C 189.410156 142.140625 189.496094 142.421875 189.609375 142.816406 C 189.71875 143.214844 189.816406 143.574219 189.898438 143.90625 C 190.027344 144.285156 190.25 144.34375 190.574219 144.085938 C 190.816406 143.871094 191.070312 143.628906 191.335938 143.363281 C 191.601562 143.097656 191.78125 142.914062 191.875 142.8125 C 192.042969 142.675781 192.238281 142.597656 192.449219 142.574219 C 192.664062 142.550781 192.886719 142.648438 193.121094 142.863281 C 193.355469 143.078125 193.476562 143.300781 193.484375 143.527344 C 193.492188 143.75 193.421875 143.945312 193.277344 144.105469 C 193.207031 144.222656 193.050781 144.429688 192.808594 144.71875 C 192.5625 145.007812 192.347656 145.28125 192.152344 145.542969 C 191.878906 145.839844 191.945312 146.046875 192.351562 146.167969 C 192.714844 146.242188 193.097656 146.320312 193.5 146.394531 C 193.902344 146.472656 194.1875 146.535156 194.359375 146.585938 C 194.574219 146.636719 194.765625 146.730469 194.9375 146.867188 C 195.113281 147.007812 195.199219 147.171875 195.203125 147.355469 C 195.226562 147.5625 195.183594 147.730469 195.0625 147.859375 C 194.941406 147.988281 194.757812 148.050781 194.507812 148.039062 C 194.320312 148.007812 193.917969 147.96875 193.296875 147.914062 C 192.679688 147.859375 192.144531 147.824219 191.6875 147.804688 C 191.230469 147.789062 191.035156 147.976562 191.105469 148.367188 C 191.15625 148.597656 191.210938 148.839844 191.277344 149.101562 C 191.339844 149.359375 191.394531 149.621094 191.453125 149.890625 C 191.503906 150.160156 191.554688 150.398438 191.601562 150.605469 C 191.648438 150.804688 191.675781 150.949219 191.6875 151.027344 Z M 191.6875 151.027344 " fill-opacity="1" fill-rule="nonzero"/><path fill="#fcfae9" d="M 215.5625 164.65625 C 215.75 164.707031 215.898438 164.800781 216.003906 164.9375 C 216.113281 165.074219 216.136719 165.21875 216.078125 165.359375 C 216.015625 165.5 215.914062 165.621094 215.769531 165.722656 C 215.625 165.828125 215.449219 165.855469 215.234375 165.816406 C 215.089844 165.800781 214.828125 165.761719 214.453125 165.695312 C 214.078125 165.636719 213.738281 165.578125 213.4375 165.519531 C 213.28125 165.484375 213.167969 165.515625 213.09375 165.613281 C 213.015625 165.714844 213.011719 165.847656 213.074219 166.015625 C 213.144531 166.277344 213.230469 166.546875 213.332031 166.816406 C 213.4375 167.085938 213.488281 167.269531 213.496094 167.363281 C 213.519531 167.496094 213.503906 167.660156 213.445312 167.847656 C 213.390625 168.039062 213.226562 168.179688 212.957031 168.28125 C 212.683594 168.382812 212.46875 168.382812 212.300781 168.277344 C 212.136719 168.171875 212.015625 168.0625 211.945312 167.945312 C 211.910156 167.863281 211.839844 167.6875 211.726562 167.417969 C 211.613281 167.152344 211.507812 166.890625 211.414062 166.636719 C 211.324219 166.480469 211.226562 166.386719 211.117188 166.355469 C 211.007812 166.324219 210.902344 166.375 210.8125 166.503906 C 210.597656 166.753906 210.367188 167.027344 210.128906 167.320312 C 209.886719 167.613281 209.714844 167.816406 209.617188 167.925781 C 209.484375 168.09375 209.328125 168.1875 209.152344 168.207031 C 208.972656 168.226562 208.816406 168.203125 208.683594 168.132812 C 208.542969 168.066406 208.46875 167.941406 208.460938 167.765625 C 208.453125 167.589844 208.515625 167.417969 208.648438 167.246094 C 208.738281 167.117188 208.921875 166.847656 209.1875 166.433594 C 209.453125 166.023438 209.691406 165.671875 209.890625 165.382812 C 210.09375 165.113281 210.019531 164.90625 209.652344 164.753906 C 209.269531 164.636719 208.835938 164.503906 208.34375 164.351562 C 207.851562 164.203125 207.539062 164.105469 207.410156 164.058594 C 207.214844 163.988281 207.085938 163.886719 207.023438 163.753906 C 206.957031 163.625 206.96875 163.480469 207.050781 163.332031 C 207.136719 163.183594 207.261719 163.078125 207.425781 163.03125 C 207.585938 162.980469 207.773438 162.964844 207.976562 162.984375 C 208.121094 163 208.363281 163.042969 208.699219 163.105469 C 209.03125 163.171875 209.335938 163.234375 209.617188 163.300781 C 209.941406 163.34375 210.074219 163.199219 210.003906 162.867188 C 209.933594 162.605469 209.847656 162.328125 209.75 162.027344 C 209.652344 161.730469 209.582031 161.53125 209.542969 161.421875 C 209.503906 161.246094 209.515625 161.074219 209.578125 160.90625 C 209.644531 160.742188 209.796875 160.613281 210.046875 160.519531 C 210.292969 160.425781 210.5 160.417969 210.671875 160.5 C 210.839844 160.578125 210.957031 160.703125 211.019531 160.867188 C 211.082031 160.964844 211.175781 161.15625 211.300781 161.441406 C 211.421875 161.730469 211.542969 161.996094 211.664062 162.238281 C 211.777344 162.554688 211.960938 162.582031 212.203125 162.324219 C 212.394531 162.085938 212.59375 161.832031 212.800781 161.558594 C 213.011719 161.289062 213.164062 161.101562 213.261719 160.992188 C 213.378906 160.855469 213.523438 160.746094 213.6875 160.671875 C 213.855469 160.59375 214.011719 160.589844 214.148438 160.660156 C 214.308594 160.722656 214.417969 160.816406 214.46875 160.953125 C 214.515625 161.089844 214.492188 161.25 214.394531 161.429688 C 214.300781 161.558594 214.121094 161.84375 213.847656 162.277344 C 213.574219 162.71875 213.347656 163.097656 213.167969 163.433594 C 212.980469 163.765625 213.046875 163.976562 213.367188 164.074219 C 213.554688 164.125 213.753906 164.171875 213.972656 164.222656 C 214.1875 164.273438 214.402344 164.328125 214.625 164.390625 C 214.84375 164.449219 215.035156 164.503906 215.207031 164.546875 C 215.378906 164.597656 215.496094 164.632812 215.5625 164.65625 Z M 215.5625 164.65625 " fill-opacity="1" fill-rule="nonzero"/><path fill="#fcfae9" d="M 247.480469 268.289062 L 198.769531 268.289062 L 198.769531 267.160156 L 246.351562 267.160156 L 246.351562 161.753906 C 246.351562 132.082031 221.277344 107.941406 190.453125 107.941406 L 184.566406 107.941406 C 153.742188 107.941406 128.664062 132.082031 128.664062 161.753906 L 128.664062 267.160156 L 160.429688 267.160156 L 160.429688 268.289062 L 127.535156 268.289062 L 127.535156 161.753906 C 127.535156 131.457031 153.121094 106.8125 184.566406 106.8125 L 190.453125 106.8125 C 221.898438 106.8125 247.480469 131.457031 247.480469 161.753906 Z M 247.480469 268.289062 " fill-opacity="1" fill-rule="nonzero"/><path fill="#fcfae9" d="M 236.9375 179.550781 C 235.695312 175.480469 234.648438 171.34375 233.753906 167.175781 C 233.492188 165.964844 233.34375 164.710938 232.601562 163.65625 C 231.917969 162.695312 230.773438 162.519531 230.082031 163.277344 C 229.191406 164.257812 228.597656 165.449219 228.429688 166.710938 C 228.207031 168.390625 227.421875 169.90625 227.367188 171.671875 C 227.332031 172.898438 227.050781 174.226562 226.835938 175.496094 C 226.519531 177.371094 226.578125 179.308594 226.476562 181.222656 C 226.730469 182.257812 226.980469 183.289062 227.234375 184.324219 L 227.230469 184.3125 C 228.039062 185.796875 228.464844 187.398438 228.664062 189.066406 C 228.691406 189.316406 228.660156 189.683594 228.265625 189.769531 C 228.226562 189.90625 228.1875 190.042969 228.148438 190.179688 C 227.003906 193.171875 225.1875 195.8125 223.691406 198.621094 C 223.347656 199.261719 223.078125 199.046875 222.722656 198.644531 C 221.070312 196.765625 219.402344 194.898438 217.742188 193.023438 C 217.527344 192.78125 217.179688 192.65625 217.113281 192.285156 L 216.714844 191.828125 C 214.824219 189.789062 212.765625 187.914062 211.046875 185.71875 C 210.914062 185.566406 210.785156 185.414062 210.652344 185.265625 C 209.121094 183.691406 207.597656 182.109375 206.054688 180.550781 C 205.414062 179.90625 204.695312 179.34375 203.902344 178.894531 C 203.460938 178.816406 203.023438 178.734375 202.582031 178.65625 C 201.09375 178.972656 201.296875 180.335938 200.929688 181.34375 C 200.851562 181.851562 200.765625 182.355469 200.6875 182.867188 C 201.074219 183.75 200.867188 184.710938 201.109375 185.648438 C 201.863281 188.570312 204.101562 190.574219 205.539062 193.066406 C 207.773438 196.953125 210.835938 200.226562 213.90625 203.472656 C 214.179688 203.761719 214.453125 204.054688 214.746094 204.367188 C 209.894531 205.136719 205.121094 205.890625 200.351562 206.652344 C 199.585938 206.773438 198.804688 206.84375 198.054688 207.03125 C 197.183594 207.253906 197.164062 206.910156 197.304688 206.203125 C 198.113281 202.078125 198.734375 197.917969 199.125 193.734375 C 199.410156 190.671875 199.332031 187.617188 197.871094 184.75 C 197.347656 183.726562 196.660156 183.054688 195.578125 182.984375 C 194.371094 182.910156 194.078125 184.0625 193.773438 184.855469 C 193.195312 186.367188 192.855469 187.976562 192.421875 189.542969 C 192.472656 190.058594 191.953125 190.339844 191.917969 190.816406 C 191.8125 191.488281 192.03125 192.242188 191.402344 192.773438 C 191.125 194.761719 190.28125 196.558594 189.511719 198.390625 C 188.230469 201.433594 186.59375 204.300781 185.136719 207.257812 C 183.738281 210.09375 182.109375 212.78125 180.457031 215.453125 C 178.25 219.019531 175.960938 222.527344 173.988281 226.242188 C 172.21875 229.582031 170.824219 233.050781 169.960938 236.734375 C 169.078125 240.5 168.316406 244.320312 168.371094 248.171875 C 168.417969 251.347656 168.675781 254.550781 169.152344 257.714844 C 169.332031 258.90625 169.371094 260.210938 168.167969 260.929688 C 166.730469 261.785156 165.539062 262.949219 164.164062 263.882812 C 161.992188 265.351562 159.96875 267.039062 157.660156 268.292969 L 160.421875 268.292969 C 162.683594 266.800781 164.8125 265.121094 167.03125 263.574219 C 167.457031 263.273438 167.808594 262.855469 168.265625 262.617188 C 170.5625 261.417969 170.878906 259.414062 170.601562 257.125 C 170.199219 253.816406 169.808594 250.496094 169.90625 247.171875 C 170.109375 239.96875 171.957031 233.171875 175.3125 226.792969 C 177.925781 221.832031 181.21875 217.289062 183.964844 212.414062 C 186.929688 207.160156 189.867188 201.890625 191.957031 196.199219 C 193.050781 193.234375 193.644531 190.121094 194.667969 187.132812 C 194.871094 186.539062 195.035156 185.925781 195.226562 185.324219 C 195.332031 184.984375 195.339844 184.519531 195.808594 184.492188 C 196.324219 184.464844 196.398438 184.957031 196.59375 185.308594 C 197.78125 187.4375 197.941406 189.769531 197.824219 192.109375 C 197.570312 197.054688 196.671875 201.917969 195.828125 206.785156 C 195.742188 207.265625 195.527344 207.46875 195.054688 207.558594 C 194.476562 207.664062 193.894531 207.828125 193.347656 208.054688 C 191.65625 208.746094 191.167969 209.914062 191.820312 211.601562 C 191.113281 211.800781 190.371094 211.820312 189.675781 212.132812 C 188.632812 212.601562 187.949219 213.304688 187.925781 214.476562 C 187.902344 215.632812 188.621094 216.300781 189.601562 216.742188 C 190.863281 217.308594 192.191406 217.652344 193.542969 217.933594 C 197.691406 218.785156 201.800781 219.800781 205.984375 220.492188 C 206.945312 220.652344 207.695312 220.9375 207.453125 222.257812 C 207.082031 224.304688 206.828125 226.378906 206.640625 228.445312 C 206.238281 232.871094 205.703125 237.308594 207.023438 241.683594 C 207.292969 242.578125 206.6875 243.082031 206.171875 243.585938 C 204.304688 245.40625 202.238281 246.992188 200.136719 248.523438 C 195.523438 251.886719 191.589844 255.863281 188.785156 260.878906 C 188.566406 261.265625 188.363281 261.667969 188.238281 262.089844 C 188.121094 262.484375 187.847656 263.035156 188.429688 263.253906 C 188.921875 263.4375 189.089844 262.929688 189.296875 262.582031 C 189.84375 261.660156 190.390625 260.734375 190.976562 259.835938 C 193.910156 255.308594 197.871094 251.8125 202.195312 248.671875 C 203.90625 247.429688 205.570312 246.109375 207.085938 244.625 C 208.003906 243.722656 208.589844 242.816406 208.226562 241.304688 C 207.164062 236.84375 207.617188 232.328125 208.085938 227.820312 C 208.292969 225.824219 208.679688 223.859375 208.855469 221.855469 C 208.972656 220.496094 208.308594 219.945312 207.332031 219.503906 C 205.957031 218.882812 204.445312 218.824219 202.984375 218.535156 C 199.085938 217.753906 195.195312 216.945312 191.347656 215.929688 C 191.027344 215.847656 190.71875 215.707031 190.410156 215.585938 C 189.84375 215.367188 189.257812 215.128906 189.339844 214.371094 C 189.417969 213.65625 190.015625 213.425781 190.597656 213.277344 C 191.859375 212.949219 193.164062 212.71875 194.441406 212.9375 C 199.503906 213.796875 204.644531 214.015625 209.691406 214.941406 C 211.867188 215.339844 213.28125 216.496094 214.066406 218.449219 C 214.648438 219.886719 215.097656 221.386719 215.523438 222.878906 C 216.957031 227.875 218.851562 232.707031 220.59375 237.59375 C 221.644531 240.539062 221.355469 243.492188 220.550781 246.351562 C 220.039062 248.164062 218.378906 249.398438 217.074219 250.765625 C 212.359375 255.691406 206.960938 259.84375 201.820312 264.285156 C 200.339844 265.566406 198.910156 266.898438 197.5625 268.304688 L 199.417969 268.304688 C 201.941406 265.738281 204.78125 263.507812 207.539062 261.195312 C 211.511719 257.855469 215.433594 254.464844 219 250.6875 C 220.195312 249.421875 221.636719 248.171875 222.027344 246.476562 C 222.507812 244.421875 222.78125 242.261719 222.5625 240.121094 C 222.503906 239.558594 222.628906 239.261719 223.082031 238.957031 C 224.433594 238.046875 225.535156 236.90625 226.28125 235.421875 C 227.679688 232.625 227.609375 229.679688 227.207031 226.707031 C 227.101562 225.953125 227.257812 225.480469 227.878906 224.953125 C 230.332031 222.894531 231.171875 220.101562 231.253906 217 C 231.292969 215.429688 230.785156 213.988281 230.28125 212.539062 C 230.171875 212.222656 229.894531 211.832031 230.410156 211.582031 C 230.964844 211.316406 231.113281 210.75 231.308594 210.257812 C 232.085938 208.332031 232.746094 206.359375 233.582031 204.457031 C 234.964844 201.300781 236.109375 198.0625 237.089844 194.761719 C 238.597656 189.675781 238.484375 184.632812 236.9375 179.550781 Z M 225.40625 234.015625 C 224.769531 235.664062 223.761719 236.96875 222.164062 237.921875 C 219.890625 231.6875 217.683594 225.558594 215.855469 219.300781 C 215.199219 217.054688 214.066406 215.148438 211.820312 214.113281 C 211.367188 213.90625 210.902344 213.824219 210.429688 213.726562 C 204.921875 212.585938 199.300781 212.320312 193.746094 211.53125 C 193.152344 211.445312 193.128906 211.078125 192.980469 210.761719 C 192.726562 210.234375 193.003906 209.816406 193.449219 209.539062 C 194.121094 209.117188 194.898438 208.9375 195.65625 208.8125 C 201.902344 207.78125 208.132812 206.683594 214.410156 205.867188 C 215.265625 205.757812 216.109375 205.90625 216.957031 206.019531 C 217.5625 206.097656 217.953125 206.359375 218.257812 206.898438 C 220.464844 210.867188 222.015625 215.121094 223.621094 219.351562 C 224.554688 221.8125 225.609375 224.238281 225.90625 226.871094 C 226.179688 229.269531 226.304688 231.675781 225.40625 234.015625 Z M 226.816406 223.992188 C 225.90625 221.566406 224.976562 219.144531 224.089844 216.714844 C 222.742188 213.015625 221.097656 209.449219 219.425781 205.890625 C 219.195312 205.394531 218.824219 204.996094 218.273438 204.929688 C 217.179688 204.800781 216.464844 204.167969 215.726562 203.398438 C 211.863281 199.359375 208.1875 195.179688 205.386719 190.304688 C 204.980469 189.597656 204.488281 188.933594 203.960938 188.308594 C 202.242188 186.253906 202.074219 183.851562 202.371094 181.359375 C 202.539062 179.9375 203.027344 179.785156 204.144531 180.675781 C 206.359375 182.453125 208.136719 184.664062 210.042969 186.738281 C 213.664062 190.675781 217.355469 194.546875 220.882812 198.574219 C 225.117188 203.40625 227.777344 209.035156 229.652344 215.074219 C 230.617188 218.183594 229.195312 222.316406 226.816406 223.992188 Z M 235.5625 195.148438 C 234.121094 200.335938 231.765625 205.183594 229.886719 210.210938 C 229.835938 210.34375 229.71875 210.453125 229.527344 210.726562 C 228.246094 207.148438 226.640625 203.941406 224.511719 201.007812 C 224.207031 200.589844 224.3125 200.34375 224.554688 199.945312 C 226.25 197.121094 227.890625 194.269531 229.34375 191.304688 C 230.203125 189.554688 230.214844 187.828125 229.5625 186.035156 C 228.886719 184.195312 228.035156 182.386719 228.0625 180.382812 C 228.136719 175.5 228.730469 170.679688 230.1875 165.996094 C 230.386719 165.355469 230.636719 164.371094 231.300781 164.398438 C 231.894531 164.425781 231.988281 165.445312 232.125 166.078125 C 233.273438 171.507812 234.730469 176.863281 236.214844 182.203125 C 237.4375 186.617188 236.742188 190.90625 235.5625 195.148438 Z M 235.5625 195.148438 " fill-opacity="1" fill-rule="nonzero"/><path fill="#fcfae9" d="M 257.992188 278.957031 L 117.023438 278.957031 L 117.023438 167.085938 C 117.023438 155.710938 120.324219 138.511719 129.585938 124.375 C 141.910156 105.570312 161.398438 96.027344 187.507812 96.027344 C 213.617188 96.027344 233.105469 105.566406 245.425781 124.371094 C 254.691406 138.511719 257.992188 155.707031 257.992188 167.085938 Z M 118.148438 277.832031 L 256.859375 277.832031 L 256.859375 167.085938 C 256.859375 155.875 253.609375 138.925781 244.480469 124.996094 C 232.382812 106.523438 213.210938 97.15625 187.503906 97.15625 C 161.796875 97.15625 142.632812 106.523438 130.527344 124.992188 C 121.402344 138.925781 118.148438 155.871094 118.148438 167.085938 Z M 118.148438 277.832031 " fill-opacity="1" fill-rule="nonzero"/><g fill="#fcfae9" fill-opacity="1"><g transform="translate(113.562676, 125.197265)"><g><path d="M 39.394531 -33.089844 C 37.824219 -32.375 36.566406 -31.898438 33.464844 -35.089844 L 16.308594 -52.832031 C 13.207031 -56.023438 13.988281 -57.121094 15.164062 -58.527344 C 16.410156 -60.125 14.738281 -61.097656 14.648438 -61.027344 C 13.929688 -60.402344 12.625 -59.253906 11.78125 -58.605469 L 5.753906 -53.953125 C 4.910156 -53.300781 4.859375 -52.910156 5.132812 -51.914062 L 11.636719 -29.28125 C 11.71875 -28.992188 11.699219 -28.832031 11.523438 -28.695312 C 11.390625 -28.59375 11.230469 -28.613281 10.972656 -28.765625 L -8.964844 -41.035156 C -9.847656 -41.628906 -10.382812 -41.5 -11.226562 -40.847656 L -17.5625 -35.957031 C -18.363281 -35.339844 -19.714844 -34.4375 -20.460938 -33.933594 C -20.546875 -33.867188 -19.984375 -32.035156 -18.214844 -32.765625 C -17.023438 -33.332031 -15.886719 -33.785156 -13.636719 -32.976562 L 0.484375 -9.640625 C 2.785156 -5.828125 1.960938 -4.699219 0.917969 -3.394531 C -0.28125 -1.832031 1.386719 -0.859375 1.476562 -0.925781 C 2.109375 -1.484375 3.367188 -2.601562 4.121094 -3.179688 L 7.046875 -5.4375 C 8.15625 -6.292969 10.042969 -7.609375 11.050781 -8.316406 C 11.183594 -8.417969 10.84375 -10.417969 8.453125 -9.210938 C 6.308594 -8.050781 4.691406 -7.300781 2.390625 -11.109375 L -8.988281 -29.703125 C -9.148438 -30.003906 -9.09375 -30.113281 -9.007812 -30.183594 C -8.871094 -30.285156 -8.75 -30.308594 -8.492188 -30.15625 L 15.335938 -15.230469 C 16.035156 -14.78125 16.675781 -14.777344 17.164062 -15.15625 C 17.695312 -15.566406 17.765625 -16.113281 17.519531 -16.984375 L 9.9375 -44.589844 C 9.855469 -44.878906 9.875 -45.035156 10.007812 -45.140625 C 10.140625 -45.242188 10.261719 -45.265625 10.480469 -45.078125 L 25.75 -29.136719 C 28.851562 -25.945312 27.71875 -24.574219 26.09375 -22.828125 C 24.277344 -20.785156 26.125 -19.949219 26.257812 -20.050781 C 27.199219 -20.847656 28.992188 -22.375 30.101562 -23.230469 L 38.742188 -29.898438 C 39.542969 -30.515625 40.894531 -31.417969 41.59375 -31.886719 C 41.726562 -31.992188 41.164062 -33.820312 39.394531 -33.089844 Z M -11.519531 -32.0625 L -11.328125 -32 Z M -11.519531 -32.0625 "/></g></g></g><g fill="#fcfae9" fill-opacity="1"><g transform="translate(149.342065, 96.101209)"><g><path d="M 22.128906 -2.832031 C 35.421875 -5.152344 43.601562 -15.613281 41.457031 -27.914062 C 39.496094 -39.167969 29.570312 -45.90625 17.433594 -43.792969 C 4.746094 -41.582031 -3.515625 -30.933594 -1.417969 -18.90625 C 0.570312 -7.488281 10.269531 -0.765625 22.128906 -2.832031 Z M 25.753906 -6.476562 C 17.589844 -5.054688 8.445312 -19.375 6.984375 -27.761719 C 5.867188 -34.160156 8.511719 -39.222656 14.027344 -40.1875 C 22.523438 -41.667969 31.355469 -27.519531 32.804688 -19.1875 C 34.054688 -12.015625 31.160156 -7.421875 25.753906 -6.476562 Z M 25.753906 -6.476562 "/></g></g></g><g fill="#fcfae9" fill-opacity="1"><g transform="translate(188.263773, 87.531025)"><g><path d="M 21.148438 7.097656 C 34.125 10.8125 46.046875 4.960938 49.480469 -7.042969 C 52.625 -18.027344 46.628906 -28.417969 34.785156 -31.808594 C 22.402344 -35.351562 10.324219 -29.371094 6.96875 -17.632812 C 3.777344 -6.492188 9.574219 3.789062 21.148438 7.097656 Z M 26.003906 5.402344 C 18.035156 3.121094 16.050781 -13.753906 18.390625 -21.9375 C 20.175781 -28.183594 24.761719 -31.589844 30.144531 -30.046875 C 38.4375 -27.675781 40.214844 -11.09375 37.890625 -2.964844 C 35.886719 4.035156 31.277344 6.910156 26.003906 5.402344 Z M 26.003906 5.402344 "/></g></g></g><g fill="#fcfae9" fill-opacity="1"><g transform="translate(226.946258, 97.308732)"><g><path d="M 57.71875 -2.277344 C 57.046875 -2.78125 55.742188 -3.757812 54.980469 -4.414062 L 52.433594 -6.605469 C 51.667969 -7.261719 50.507812 -8.40625 49.867188 -9.03125 C 49.78125 -9.105469 48.105469 -8.183594 49.175781 -6.597656 C 50.195312 -5.207031 50.871094 -4.105469 47.953125 -0.707031 L 37.441406 11.597656 C 37.257812 11.808594 37.101562 11.820312 36.972656 11.710938 C 36.847656 11.601562 36.792969 11.40625 36.773438 11.171875 L 37.878906 -17.9375 C 37.90625 -18.65625 37.617188 -19.347656 36.722656 -20.113281 L 29.796875 -26.144531 C 29.117188 -26.730469 28.003906 -27.835938 27.445312 -28.390625 C 27.359375 -28.464844 25.683594 -27.542969 26.671875 -26.027344 C 27.335938 -25.085938 27.917969 -24.214844 27.472656 -22.238281 L 9.496094 -1.507812 C 6.609375 1.84375 5.34375 1.34375 3.8125 0.546875 C 2.082031 -0.277344 1.460938 1.476562 1.589844 1.585938 C 2.226562 2.136719 3.53125 3.109375 4.292969 3.765625 L 6.839844 5.957031 C 7.605469 6.613281 8.761719 7.757812 9.441406 8.34375 C 9.527344 8.414062 11.167969 7.539062 10.097656 5.949219 C 9.078125 4.558594 8.4375 3.414062 11.320312 0.0625 L 27.539062 -18.707031 C 27.722656 -18.921875 27.878906 -18.933594 27.964844 -18.859375 C 28.050781 -18.785156 28.140625 -18.632812 28.15625 -18.398438 L 27.371094 22.875 C 27.339844 23.515625 27.65625 24.007812 28.074219 24.292969 C 28.625 24.765625 29.179688 24.726562 29.214844 24.683594 L 49.777344 0.863281 C 52.699219 -2.535156 53.929688 -1.992188 55.460938 -1.195312 C 57.1875 -0.371094 57.847656 -2.167969 57.71875 -2.277344 Z M 57.71875 -2.277344 "/></g></g></g></svg>